<?xml version="1.0" encoding="utf-8"?>
<!-- Generator: Adobe Illustrator 25.1.0, SVG Export Plug-In . SVG Version: 6.00 Build 0)  -->
<svg version="1.1" id="Layer_1" xmlns="http://www.w3.org/2000/svg" xmlns:xlink="http://www.w3.org/1999/xlink" x="0px" y="0px"
	 width="192px" height="192px" viewBox="0 0 192 192" style="enable-background:new 0 0 192 192;" xml:space="preserve">
<style type="text/css">
	.st0{fill:#C0F6E5;}
	.st1{fill:#E9FBF6;}
	.st2{fill:#4EE6B8;}
	.st3{fill:#B6F5E1;}
	.st4{fill:#A8F2DB;}
	.st5{fill:#30E2AC;}
	.st6{fill:#2EE2AC;}
	.st7{fill:#33E3AE;}
	.st8{fill:#37E3AF;}
	.st9{fill:#FEFEFE;}
	.st10{fill:#3CE4B1;}
	.st11{fill:#88EECF;}
	.st12{fill:#E6FBF5;}
	.st13{fill:#DEFAF1;}
</style>
<g>
	<path class="st0" d="M50.31,85.91c-1.08,0.3-2.1,0.79-3,1.47c-0.19,0.13-0.36,0.4-0.61,0.25s-0.09-0.42,0-0.65
		c0.09-0.55,0.19-1.07-0.39-1.43c-0.25-0.14-0.16-0.39-0.16-0.6c0-2.51,0-5,0-7.53c0-8.45,0-16.9,0-25.35
		c-0.06-2.04,0.99-3.96,2.75-5c1-0.59,2.14-0.91,3.3-0.91c15.26,0,30.52,0,45.77,0c3.38-0.01,6.74,0.44,10,1.33
		c3.16,0.88,6.25,2.03,9.22,3.42c3.47,1.62,6.75,3.6,9.81,5.9c2.3,1.68,4.44,3.56,6.39,5.63c2.77,2.88,5.12,6.13,7,9.66
		c2.01,4.06,3.49,8.37,4.39,12.81c0.43,2,0.6,4,1,5.95c0.03,0.2-0.04,0.4-0.19,0.53c-0.83,0.93-1.34,2.11-1.45,3.36
		c-0.07,1.27,0.35,2.52,1.17,3.49c0.47,0.59,0.65,1.36,0.49,2.1c-0.13,1.09-0.27,2.18-0.4,3.26c-0.25,1.9-0.64,3.78-1.15,5.63
		c-0.91,3.32-2.17,6.54-3.77,9.59c-1.67,3.21-3.68,6.22-6,9c-1.53,1.83-3.18,3.55-4.95,5.15c-2.84,2.59-5.99,4.82-9.36,6.66
		c-3.52,1.94-7.27,3.43-11.16,4.46c-2.32,0.6-4.67,1.04-7.05,1.32c-2.14,0.28-4.29,0.43-6.45,0.43c-2.23-0.02-4.46-0.2-6.67-0.54
		c-2.31-0.36-4.59-0.86-6.84-1.5c-2.19-0.63-4.34-1.41-6.42-2.34c-2.34-1.05-4.59-2.29-6.73-3.69c-1.86-1.21-3.63-2.55-5.3-4
		c-1.18-1-2.34-2.07-3.42-3.2c-2.82-2.93-5.28-6.19-7.32-9.7c-1.54-2.66-2.83-5.46-3.85-8.36c-0.63-1.76-1.12-3.56-1.47-5.4
		c0.33,0.1,0.65,0.25,0.94,0.44c1.81,1.1,3.88,1.7,6,1.73c2.32,0.07,4.6-0.53,6.58-1.74c3.1-1.83,5.2-4.97,5.7-8.53
		c0.58-3.22-0.25-6.54-2.29-9.1c-0.18-0.22-0.37-0.49-0.15-0.76s0.47,0,0.69,0.11c0.37,0.25,0.87,0.16,1.13-0.21
		c0.01-0.01,0.02-0.02,0.02-0.04c0.46-0.6,0.5-1,0.1-1.38c-0.61-0.64-1.23-1.26-1.87-1.88c-0.34-0.4-0.94-0.47-1.36-0.15
		c-0.49,0.26-0.67,0.87-0.4,1.36c0.01,0.02,0.02,0.04,0.03,0.05c0.1,0.22,0.21,0.42,0,0.6s-0.43,0-0.63-0.12
		c-0.84-0.68-1.78-1.21-2.79-1.58c-0.29-0.14-0.61-0.21-0.93-0.2l0,0l-0.15-0.13c-0.66-0.42-1.39-0.73-2.15-0.9
		c0.05-0.17,0.2-0.17,0.34-0.19c0.84-0.03,1.5-0.74,1.47-1.59c0,0,0,0,0,0c0.06-0.88-0.6-1.64-1.47-1.7c-0.06,0-0.12-0.01-0.19,0
		c-0.91,0-1.81,0-2.71,0c-0.53,0-1.04,0.21-1.41,0.58c-0.62,0.53-0.7,1.46-0.18,2.09c0.17,0.2,0.4,0.36,0.65,0.44
		c0.21,0.08,0.47,0.08,0.64,0.28c-0.12,0.14-0.29,0.1-0.44,0.11C51.73,84.68,50.84,85.13,50.31,85.91z M90.31,99.64
		c0.1,0.28,0.15,0.58,0.13,0.88c0,1.14,0,2.29,0,3.43c0,0.75,0.37,1.16,1,1.17c0.63,0.01,0.92-0.43,0.93-1.16c0-0.9,0-1.81,0-2.71
		c0.15-2.08,0.09-4.17-0.17-6.24c-0.1-1.14-0.61-2.21-1.45-3c-2.22-1.91-5.57-1.67-7.5,0.53c-1.56,1.85-1.55,5.71,0.8,7.41
		c0.98,0.78,2.24,1.11,3.48,0.91C88.52,100.6,89.46,100.19,90.31,99.64z M139.2,96.49c0.94,0,1.89,0,2.83,0c0.64,0,1-0.31,1.06-0.83
		c0.19-2.88-1.61-5.07-4.56-5c-4.43,0.11-6,4.55-4.25,7.72c1.03,1.95,2.88,2.53,4.96,2.53c1.03,0.02,2.03-0.34,2.82-1
		c0.29-0.27,0.55-0.57,0.26-1c-0.2-0.42-0.7-0.6-1.13-0.41c-0.29,0.12-0.58,0.26-0.87,0.41c-1.62,0.83-3.61,0.26-4.55-1.3
		c-0.4-0.66-0.2-1,0.57-1c0.97-0.13,1.89-0.11,2.83-0.12H139.2z M114.09,96.49c1.06,0.05,2.12,0,3.17-0.13
		c0.79-0.19,1.14-0.58,1-1.37c-0.39-2.68-2-4.35-4.6-4.34c-1.89-0.12-3.66,0.93-4.46,2.65c-0.93,1.77-0.78,3.91,0.4,5.53
		c1.31,1.84,3.24,2.22,5.35,1.91c0.83-0.07,1.61-0.43,2.22-1c0.29-0.25,0.36-0.68,0.15-1c-0.18-0.37-0.63-0.52-1-0.34
		c-0.33,0.14-0.66,0.29-1,0.45c-1.63,0.77-3.57,0.2-4.52-1.33c-0.2-0.24-0.24-0.57-0.11-0.85c0.15-0.3,0.45-0.19,0.7-0.19
		c0.84,0.01,1.66,0.02,2.67,0.02L114.09,96.49z M105.41,95.74v-4c0-0.63-0.31-0.89-0.9-0.9c-0.59-0.01-1,0.25-1,0.88
		c0,0.63-0.08,1.28-0.09,1.92c0,1.06,0,2.12,0,3.18c0.04,1.19-0.89,2.19-2.08,2.23c-0.08,0-0.16,0-0.24,0c-0.24,0-0.48,0-0.73,0
		c-1.11,0.03-2.07-0.77-2.25-1.87c-0.16-1.19-0.2-2.39-0.13-3.59c0.03-0.67,0-1.34-0.09-2c-0.06-0.42-0.42-0.72-0.84-0.7
		c-0.71,0-1.09,0.31-1.1,1.1c0,1.42,0,2.85,0,4.27c0.08,3.51,2.92,5.73,6.4,4.29c0.54-0.32,1.22-0.28,1.72,0.1
		c0.59,0.44,1.11,0.21,1.33-0.51c0.05-0.21,0.08-0.43,0.07-0.65c-0.09-1.29-0.1-2.52-0.1-3.74L105.41,95.74z M130.35,95.74
		c0-1.32,0-2.65,0-4c0-0.74-0.33-1-1.06-1s-0.88,0.33-0.88,1c0,1.46,0,2.93,0,4.39s-0.62,2.45-1.8,2.71
		c-0.71,0.17-1.45,0.13-2.13-0.11c-0.66-0.22-1.17-0.75-1.38-1.41c-0.15-0.48-0.22-0.98-0.21-1.48c0-1.35,0-2.69,0-4
		c0-0.78-0.37-1.11-1.05-1.1s-1,0.36-1,1.1c0,1.48,0,3,0,4.45c-0.04,1.58,0.75,3.07,2.08,3.93c1.45,0.85,3.24,0.85,4.69,0
		c0.31-0.21,0.73-0.17,1,0.1c0.27,0.34,0.72,0.47,1.13,0.32c0.38-0.2,0.6-0.6,0.57-1.03L130.35,95.74z M71.05,93.62v-5.77
		c0.03-0.22,0.03-0.43,0-0.65c-0.09-0.47-0.53-0.78-1-0.72c-0.45-0.02-0.83,0.32-0.86,0.77c-0.05,0.31-0.08,0.63-0.09,0.95
		c0,3.64,0,7.29,0,10.94c0.01,0.28,0.04,0.56,0.08,0.83c0.01,0.43,0.38,0.77,0.81,0.75c0.01,0,0.03,0,0.04,0
		c0.77,0,1.09-0.29,1.1-1.15C71.06,97.59,71.05,95.61,71.05,93.62z M76.99,96.73h2c0.66,0,1-0.32,1.05-0.91
		c0.05-0.51-0.33-0.95-0.83-1c-0.06-0.01-0.11-0.01-0.17,0c-1.36,0-2.72,0-4.09,0c-0.49-0.02-0.89,0.37-0.91,0.85
		c0,0.05,0,0.1,0.01,0.15c-0.01,0.47,0.37,0.87,0.85,0.87c0.03,0,0.06,0,0.09,0L76.99,96.73z"/>
	<path class="st1" d="M59.96,101.91v0.15c-0.18-0.04-0.37-0.02-0.53,0.06c-1.14,0.31-2.3,0.51-3.48,0.61
		c-2.35,0.15-4.71-0.04-7-0.56l-0.19-0.26c0-3.74,0-7.48,0-11.22c-0.01-0.42,0.07-0.84,0.25-1.22c1.38-0.39,2.79-0.63,4.22-0.73
		c2.07-0.09,4.15,0.13,6.16,0.65c0.17,0,0.34,0.19,0.48,0l0.09,0.25V101.91z M54.31,93.17C54.13,93.22,54,93.39,54,93.58
		c-0.13,0.7-0.16,1.42-0.32,2.12c-0.08,0.35,0.2,0.53,0.56,0.55c0.59-0.01,1.17-0.15,1.7-0.42c-0.66-0.14-1.14-0.36-1.33-1
		S54.57,93.71,54.31,93.17z"/>
	<path class="st2" d="M59.87,89.38c-0.14,0.22-0.31,0.08-0.48,0c-2.01-0.52-4.09-0.74-6.16-0.65c-1.43,0.1-2.84,0.34-4.22,0.73
		l-0.05-0.49c0.35-1.06,0.92-2.06,1.35-3.06c0.52-0.76,1.39-1.21,2.31-1.2c0.15,0,0.32,0,0.44-0.11c0.96-0.07,1.92-0.07,2.88,0
		c0.76,0.17,1.49,0.48,2.15,0.9l0.15,0.13l0,0C58.8,86.91,59.31,88.14,59.87,89.38z"/>
	<path class="st2" d="M48.9,102.18c2.29,0.52,4.65,0.71,7,0.56c1.18-0.1,2.34-0.3,3.48-0.61c0.16-0.08,0.35-0.1,0.53-0.06
		c-0.43,0.92-0.91,1.83-1.26,2.78c-0.3,1.12-1.28,1.92-2.44,2c-1.14,0.16-2.29,0.18-3.43,0.06c-1.65-0.18-3.01-1.38-3.39-3
		C49.22,103.29,49.06,102.73,48.9,102.18z"/>
	<path class="st3" d="M48.96,89l0.05,0.49c-0.18,0.38-0.26,0.8-0.25,1.22c0,3.74,0,7.48,0,11.22c-0.46,0-0.6-0.29-0.6-0.72
		c0-3.63,0-7.26,0-10.89C48.18,89.77,48.31,89.18,48.96,89z"/>
	<path class="st4" d="M59.96,101.91V89.63c0.28,0.25,0.41,0.63,0.35,1c0,3.41,0,6.81,0,10.22
		C60.39,101.24,60.26,101.64,59.96,101.91z"/>
	<path class="st5" d="M90.31,99.64c-0.84,0.54-1.76,0.94-2.72,1.2c-1.25,0.2-2.52-0.14-3.51-0.93c-2.35-1.7-2.36-5.56-0.8-7.41
		c1.93-2.2,5.28-2.44,7.5-0.53c0.84,0.79,1.35,1.86,1.45,3c0.26,2.07,0.32,4.16,0.17,6.24c-0.06,0.9,0,1.81,0,2.71
		c0,0.73-0.36,1.16-0.93,1.16s-1-0.42-1-1.17c0-1.14,0-2.29,0-3.43C90.48,100.19,90.42,99.91,90.31,99.64z M84.07,95.74
		c-0.1,1.78,1.22,3.33,3,3.5c1.47,0.1,2.82-0.83,3.26-2.24c0.48-1.51-0.06-3.16-1.35-4.09c-0.93-0.64-2.15-0.7-3.14-0.16
		c-1.14,0.55-1.85,1.72-1.8,2.99H84.07z"/>
	<path class="st6" d="M139.17,96.49c-0.94,0-1.88,0-2.83,0c-0.77,0-1,0.38-0.57,1c0.92,1.57,2.91,2.16,4.54,1.35
		c0.29-0.15,0.58-0.29,0.87-0.41c0.43-0.19,0.93-0.01,1.13,0.41c0.29,0.42,0,0.72-0.26,1c-0.79,0.66-1.79,1.02-2.82,1
		c-2.08,0-3.9-0.54-5-2.48c-1.79-3.17-0.18-7.61,4.25-7.72c3-0.08,4.75,2.11,4.56,5c0,0.52-0.42,0.82-1.06,0.83
		C141.06,96.5,140.11,96.49,139.17,96.49z M138.31,95.04L138.31,95.04c0.72,0,1.44,0,2.16,0s1-0.37,0.65-1
		c-0.44-1.05-1.47-1.73-2.61-1.7c-1.18-0.06-2.29,0.55-2.89,1.57c-0.35,0.57,0,1.09,0.67,1.09L138.31,95.04z"/>
	<path class="st6" d="M114.06,96.5c-1,0-1.83,0-2.65,0c-0.25,0-0.55-0.11-0.7,0.19c-0.13,0.28-0.09,0.61,0.11,0.85
		c0.94,1.53,2.86,2.11,4.49,1.37c0.32-0.16,0.65-0.31,1-0.45c0.37-0.18,0.82-0.03,1,0.34c0.21,0.32,0.14,0.75-0.15,1
		c-0.61,0.57-1.39,0.93-2.22,1c-2.11,0.31-4-0.07-5.35-1.91c-1.18-1.62-1.33-3.76-0.4-5.53c0.8-1.72,2.57-2.77,4.46-2.65
		c2.58,0,4.21,1.66,4.6,4.34c0.12,0.79-0.23,1.18-1,1.37C116.2,96.54,115.13,96.57,114.06,96.5z M113.06,95.04
		c0.87,0.02,1.74-0.01,2.61-0.08c0.66-0.12,0.8-0.41,0.53-1c-0.46-1.08-1.56-1.76-2.74-1.68c-1.21,0.03-2.31,0.74-2.83,1.84
		c-0.22,0.57,0,0.94,0.66,0.94s1.27-0.02,1.76-0.02H113.06z"/>
	<path class="st7" d="M105.38,95.75c0,1.22,0,2.45,0,3.67c0.01,0.22-0.02,0.44-0.07,0.65c-0.22,0.72-0.74,1-1.33,0.51
		c-0.5-0.38-1.18-0.42-1.72-0.1c-3.48,1.44-6.32-0.78-6.4-4.29c0-1.42,0-2.85,0-4.27c0-0.79,0.39-1.13,1.1-1.1
		c0.42-0.02,0.78,0.28,0.84,0.7c0.09,0.66,0.12,1.33,0.09,2c-0.07,1.2-0.03,2.4,0.13,3.59c0.16,1.13,1.15,1.96,2.29,1.91
		c0.25,0,0.49,0,0.73,0c1.19,0.06,2.21-0.85,2.27-2.05c0-0.06,0-0.12,0-0.17c0.05-1.06,0-2.12,0-3.18c0-0.67,0.03-1.31,0.09-1.92
		c0-0.63,0.38-0.9,1-0.88c0.62,0.02,0.85,0.27,0.9,0.9v4L105.38,95.75z"/>
	<path class="st7" d="M130.31,95.76v3.85c0.07,0.45-0.16,0.9-0.57,1.11c-0.41,0.15-0.86,0.02-1.13-0.32c-0.27-0.27-0.69-0.31-1-0.1
		c-1.45,0.85-3.24,0.85-4.69,0c-1.33-0.86-2.12-2.35-2.08-3.93c-0.07-1.48,0-3,0-4.45c0-0.74,0.34-1.1,1-1.1s1,0.32,1.05,1.1
		c0,1.35,0,2.69,0,4c-0.01,0.5,0.06,1,0.21,1.48c0.21,0.66,0.72,1.19,1.38,1.41c0.68,0.24,1.42,0.28,2.13,0.11
		c1.18-0.26,1.78-1.17,1.8-2.71s0-2.93,0-4.39c0-0.71,0.28-1,0.88-1c0.6,0,1,0.23,1.06,1C130.31,93.11,130.31,94.44,130.31,95.76z"
		/>
	<path class="st8" d="M71.05,93.62c0,2,0,4,0,5.95c0,0.86-0.33,1.17-1.1,1.15c-0.43,0.04-0.81-0.28-0.85-0.71c0-0.01,0-0.03,0-0.04
		c-0.04-0.27-0.07-0.55-0.08-0.83c0-3.65,0-7.3,0-10.94c0.01-0.32,0.04-0.64,0.09-0.95c0.03-0.45,0.41-0.79,0.86-0.77
		c0.47-0.06,0.91,0.25,1,0.72c0.03,0.22,0.03,0.43,0,0.65L71.05,93.62z"/>
	<path class="st9" d="M55.98,84.63c-0.96-0.07-1.92-0.07-2.88,0c-0.17-0.2-0.43-0.2-0.64-0.28c-0.77-0.27-1.18-1.11-0.91-1.88
		c0.09-0.25,0.24-0.48,0.44-0.65c0.37-0.37,0.88-0.58,1.41-0.58c0.9,0,1.8,0,2.71,0c0.88-0.05,1.63,0.62,1.68,1.5
		c0,0.05,0,0.1,0,0.15c0.01,0.83-0.65,1.52-1.48,1.55C56.18,84.46,56.03,84.46,55.98,84.63z"/>
	<path class="st10" d="M76.99,96.73h-2c-0.47,0.04-0.89-0.3-0.94-0.78c0-0.03,0-0.06,0-0.09c-0.07-0.48,0.27-0.93,0.75-0.99
		c0.05-0.01,0.1-0.01,0.15-0.01c1.37,0,2.73,0,4.09,0c0.51-0.05,0.95,0.33,1,0.83c0.01,0.06,0.01,0.11,0,0.17
		c0,0.59-0.39,0.9-1.05,0.91L76.99,96.73z"/>
	<path class="st9" d="M58.31,85.66l-0.15-0.13L58.31,85.66z"/>
	<path class="st11" d="M54.31,93.17c0.22,0.54,0.13,1.14,0.3,1.68c0.17,0.54,0.67,0.84,1.33,1c-0.53,0.27-1.11,0.41-1.7,0.42
		c-0.36,0-0.64-0.2-0.56-0.55c0.16-0.7,0.19-1.42,0.32-2.12C53.99,93.4,54.12,93.22,54.31,93.17z"/>
	<path class="st12" d="M84.04,95.74c-0.05-1.27,0.66-2.45,1.8-3c0.99-0.54,2.21-0.48,3.14,0.16c1.28,0.95,1.79,2.62,1.27,4.13
		c-0.44,1.41-1.79,2.34-3.26,2.24C85.23,99.07,83.93,97.52,84.04,95.74z"/>
	<path class="st13" d="M138.31,95.04h-2c-0.66,0-1-0.52-0.67-1.09c0.57-1.07,1.7-1.72,2.91-1.68c1.14-0.03,2.17,0.65,2.61,1.7
		c0.32,0.68,0.11,1-0.65,1c-0.76,0-1.44,0-2.16,0L138.31,95.04z"/>
	<path class="st13" d="M113.05,95.04c-0.49,0-1.13,0-1.77,0s-0.88-0.37-0.66-0.94c0.52-1.1,1.62-1.81,2.83-1.84
		c1.17-0.08,2.27,0.58,2.74,1.65c0.27,0.61,0.13,0.9-0.53,1C114.8,95,113.93,95.04,113.05,95.04z"/>
</g>
</svg>
